<?xml version="1.0" standalone="no"?>
<!DOCTYPE svg PUBLIC "-//W3C//DTD SVG 20010904//EN"
 "http://www.w3.org/TR/2001/REC-SVG-20010904/DTD/svg10.dtd">
<svg version="1.0" xmlns="http://www.w3.org/2000/svg"
 width="840.000000pt" height="840.000000pt" viewBox="0 0 840.000000 840.000000"
 preserveAspectRatio="xMidYMid meet">
<metadata>
Created by potrace 1.10, written by Peter Selinger 2001-2011
</metadata>
<g transform="translate(0.000000,840.000000) scale(0.100000,-0.100000)"
fill="#2d3142" stroke="none">
<path d="M3560 7228 c-41 -5 -88 -15 -105 -22 -16 -7 -50 -21 -75 -31 -78 -32
-209 -115 -271 -173 -73 -67 -152 -169 -180 -232 -49 -108 -72 -210 -72 -315
1 -72 18 -197 31 -222 7 -12 12 -29 12 -38 0 -17 88 -201 120 -250 11 -16 23
-37 27 -45 33 -72 325 -388 453 -492 91 -73 127 -100 210 -162 114 -84 241
-170 270 -182 8 -4 22 -13 30 -19 34 -28 131 -75 153 -75 25 0 28 4 87 135 53
117 57 126 106 258 9 23 19 49 23 57 10 19 73 226 94 305 47 178 56 241 63
430 6 161 -22 355 -67 455 -6 14 -18 41 -26 60 -53 126 -124 229 -230 330
-113 110 -187 157 -313 200 -46 15 -230 43 -257 39 -4 -1 -42 -6 -83 -11z
m217 -565 c99 -45 206 -157 276 -288 102 -191 134 -468 120 -1040 -7 -265 -10
-310 -23 -310 -14 0 -122 138 -220 280 -25 36 -56 79 -69 96 -14 16 -29 38
-35 49 -10 17 -110 169 -177 268 -16 23 -29 46 -29 51 0 5 -6 13 -13 19 -7 6
-30 46 -52 89 -21 43 -41 80 -44 83 -6 5 -23 40 -53 110 -8 19 -22 51 -30 70
-31 68 -48 157 -48 248 0 108 16 142 89 196 124 91 225 117 308 79z"/>
<path d="M5385 6329 c-33 -10 -85 -31 -115 -46 -86 -43 -247 -167 -338 -260
-76 -78 -202 -233 -202 -248 0 -4 -11 -21 -24 -38 -32 -42 -127 -221 -170
-317 -8 -19 -29 -65 -45 -103 -17 -37 -31 -71 -31 -77 0 -10 -25 -70 -46 -112
-8 -14 -14 -34 -14 -45 0 -10 -7 -27 -15 -37 -8 -11 -15 -30 -15 -42 0 -13 -4
-26 -10 -29 -25 -15 -8 -33 38 -39 243 -32 714 -20 891 24 360 88 587 218 751
430 45 58 53 71 95 158 19 40 35 80 35 90 0 10 6 24 13 30 16 17 17 259 1 293
-6 13 -22 47 -34 74 -31 69 -167 200 -251 243 -116 59 -177 72 -323 71 -101 0
-145 -5 -191 -20z m282 -431 c36 -17 72 -42 80 -55 21 -31 11 -88 -28 -166
-59 -119 -135 -200 -280 -299 -65 -45 -307 -168 -329 -168 -7 0 -24 -6 -38
-14 -30 -15 -46 -21 -222 -77 -69 -23 -134 -44 -145 -48 -11 -5 -47 -16 -80
-26 -33 -10 -86 -26 -118 -36 -31 -11 -62 -19 -67 -19 -22 0 -8 36 29 74 41
43 115 127 192 217 264 308 417 446 624 559 144 79 172 89 249 89 58 1 79 -4
133 -31z"/>
<path d="M1782 6271 c-41 -10 -84 -23 -95 -28 -12 -6 -46 -21 -75 -34 -60 -26
-136 -94 -178 -160 -36 -56 -94 -170 -94 -186 0 -20 18 -25 42 -12 64 36 331
60 428 39 97 -20 271 -81 324 -113 50 -30 166 -115 176 -128 11 -15 729 -547
754 -559 6 -3 29 -16 51 -30 87 -56 252 -127 345 -150 19 -5 53 -13 75 -19 65
-17 304 -14 366 5 30 9 60 18 67 20 24 7 9 49 -18 52 -48 5 -236 53 -285 73
-120 49 -151 62 -192 85 -97 53 -203 143 -423 360 -124 122 -249 244 -279 270
-30 27 -118 111 -195 188 -180 177 -243 225 -376 288 -106 49 -302 68 -418 39z"/>
<path d="M2281 4723 c-52 -7 -109 -48 -144 -105 -15 -25 -17 -80 -17 -578 0
-530 1 -552 20 -590 20 -40 69 -83 107 -94 11 -4 26 -13 32 -20 8 -9 12 -308
13 -1002 l3 -989 24 -38 c13 -21 42 -50 64 -65 l41 -27 787 -3 788 -3 6 23 c3
13 4 804 3 1758 l-3 1735 -845 1 c-465 0 -860 -1 -879 -3z"/>
<path d="M4372 4717 c-9 -11 -11 -413 -10 -1758 l3 -1744 791 0 791 0 47 39
c26 21 53 50 59 65 9 19 13 289 17 1020 l5 994 45 24 c57 30 87 59 111 105 18
35 19 66 19 571 0 588 1 575 -62 632 -67 61 -8 57 -943 62 -743 4 -863 3 -873
-10z"/>
</g>
</svg>
